<svg xmlns="http://www.w3.org/2000/svg" xmlns:xlink="http://www.w3.org/1999/xlink" viewBox="0 0 256 256"><defs><style>.cls-1,.cls-7{fill:none;}.cls-2{clip-path:url(#clip-path);}.cls-3{fill:#fff;}.cls-4{fill:#a3a3a3;}.cls-5{fill:#b5b5b5;}.cls-6{fill:#e5e5e5;}.cls-7{stroke:#545454;stroke-miterlimit:10;stroke-width:8px;}.cls-8{clip-path:url(#clip-path-2);}</style><clipPath id="clip-path"><rect class="cls-1" x="-278" y="0.25" width="255.75" height="255.75"/></clipPath><clipPath id="clip-path-2"><rect class="cls-1" x="77.09" y="32.33" width="107" height="76.54" transform="translate(12.13 -18.88) rotate(8.67)"/></clipPath></defs><title>Icon</title><g id="Pukeko"><g class="cls-2"><path class="cls-3" d="M-142.59,41.39s-93.74,39-46.87,65.65a96.74,96.74,0,0,1,16.87,42.06l18.71,12.31c-106.68,70.78,60.53,205.17,60.53,205.17,149.77,160,295.43,150.79,295.43,150.79,16.42,14.36,41,69.76,41,69.76,16.41,2-256.46,19.49-256.46,19.49-138.48,44.11-102.58,118-102.58,118,23.59-83.09,90.27-95.4,90.27-95.4-71.81,76.93-24.62,99.5-24.62,99.5,2.05-79,35.91-90.27,35.91-90.27C14.36,665.09-16.42,703-16.42,703c60.53-14.36,14.37-79,14.37-79,102.58-2.06,269.79-17.44,269.79-17.44,9.23-19.49-26.67-82.07-26.67-82.07,4.1-19.49,21.54-8.21,21.54-8.21,45.13,71.81-15.39,292.36-15.39,292.36-113.87-24.62-106.69,43.09-106.69,43.09,50.27-52.32,92.33-26.67,92.33-26.67l3.08,8.2c-30.78-1-87.2,25.65-79,42.06s39,5.13,26.67,0-4.1-8.2-4.1-8.2,22.56-20.52,68.73-23.86,35.9,19.75,35.9,19.75l-6.16,1v11.28h16.42l6.15-6.15c7.18-20.52,0-30.78,0-30.78-30.77-14.36-33.85-23.59-33.85-23.59,64.63-269.79,19.49-308.77,19.49-308.77V487.62l9.23-6.15c120,13.33,147.72-9.24,147.72-9.24,93.35,27.7,128.23,19.5,128.23,19.5l-18.47-20.52c30.78-41,26.68-89.25,26.68-89.25l12.31-6.15c-9.24-22.57-59.5-20.52-71.81-25.65s-41-42.06-185.68-133.35S-44.11,166.54-44.11,166.54c-5.13-40-12.52-131.89-98.48-125.15"/></g></g><g id="Passport"><rect class="cls-4" x="60.34" y="7.06" width="148.51" height="237.33" rx="25.42" ry="25.42" transform="translate(20.49 -18.85) rotate(8.67)"/><rect class="cls-5" x="53.34" y="9.06" width="148.51" height="237.33" rx="25.42" ry="25.42" transform="translate(20.71 -17.77) rotate(8.67)"/><rect class="cls-6" x="47.59" y="9.29" width="148.51" height="237.33" rx="25.42" ry="25.42" transform="translate(20.68 -16.9) rotate(8.67)"/><rect class="cls-7" x="77.09" y="32.33" width="107" height="76.54" transform="translate(12.13 -18.88) rotate(8.67)"/><g class="cls-8"><circle class="cls-7" cx="131.97" cy="61.56" r="10.85"/><rect class="cls-7" x="106.16" y="81.01" width="37.32" height="54.83" rx="12" ry="12" transform="translate(17.77 -17.58) rotate(8.67)"/></g><line class="cls-7" x1="69.14" y1="118.67" x2="161.7" y2="132.78"/><line class="cls-7" x1="67.24" y1="131.11" x2="169.54" y2="146.71"/><line class="cls-7" x1="65.34" y1="143.55" x2="135.88" y2="154.31"/><line class="cls-7" x1="63.45" y1="155.99" x2="84.15" y2="159.15"/><line class="cls-7" x1="53.96" y1="218.19" x2="137.06" y2="230.86"/><line class="cls-7" x1="59.65" y1="180.87" x2="165.44" y2="197"/><line class="cls-7" x1="57.76" y1="193.31" x2="118.55" y2="202.58"/><line class="cls-7" x1="55.86" y1="205.75" x2="148.42" y2="219.87"/></g></svg>