<svg xmlns="http://www.w3.org/2000/svg" xmlns:xlink="http://www.w3.org/1999/xlink" viewBox="0 0 256 256"><defs><style>.cls-1,.cls-6{fill:none;}.cls-2{clip-path:url(#clip-path);}.cls-3{fill:#fff;}.cls-4{fill:#e5e5e5;}.cls-5{clip-path:url(#clip-path-2);}.cls-6{stroke:#545454;stroke-miterlimit:10;stroke-width:30px;}</style><clipPath id="clip-path"><rect class="cls-1" x="-554" y="0.25" width="255.75" height="255.75"/></clipPath><clipPath id="clip-path-2"><circle id="SVGID" class="cls-1" cx="128" cy="128.06" r="128"/></clipPath></defs><title>Icon</title><g id="Pukeko"><g class="cls-2"><path class="cls-3" d="M-418.59,41.39s-93.74,39-46.87,65.65a96.74,96.74,0,0,1,16.87,42.06l18.71,12.31c-106.68,70.78,60.53,205.17,60.53,205.17,149.77,160,295.43,150.79,295.43,150.79,16.42,14.36,41,69.76,41,69.76,16.41,2-256.46,19.49-256.46,19.49-138.48,44.11-102.58,118-102.58,118,23.59-83.09,90.27-95.4,90.27-95.4-71.81,76.93-24.62,99.5-24.62,99.5,2-79,35.91-90.27,35.91-90.27,28.72,26.67-2.06,64.62-2.06,64.62,60.53-14.36,14.37-79,14.37-79C-175.47,622-8.26,606.62-8.26,606.62,1,587.13-34.93,524.55-34.93,524.55c4.1-19.49,21.54-8.21,21.54-8.21C31.74,588.15-28.78,808.7-28.78,808.7c-113.87-24.62-106.69,43.09-106.69,43.09,50.27-52.32,92.33-26.67,92.33-26.67l3.08,8.2c-30.78-1-87.2,25.65-79,42.06s39,5.13,26.67,0-4.1-8.2-4.1-8.2,22.56-20.52,68.73-23.86,35.9,19.75,35.9,19.75L2,864.1v11.28H18.41l6.15-6.15c7.18-20.52,0-30.78,0-30.78C-6.21,824.09-9.29,814.86-9.29,814.86,55.34,545.07,10.2,506.09,10.2,506.09V487.62l9.23-6.15c120,13.33,147.72-9.24,147.72-9.24,93.35,27.7,128.23,19.5,128.23,19.5l-18.47-20.52c30.78-41,26.68-89.25,26.68-89.25l12.31-6.15c-9.24-22.57-59.5-20.52-71.81-25.65s-41-42.06-185.68-133.35-378.52-50.27-378.52-50.27c-5.13-40-12.52-131.89-98.48-125.15"/></g></g><g id="User"><circle class="cls-4" cx="128" cy="128.19" r="128"/><g class="cls-5"><circle class="cls-6" cx="131.77" cy="103.75" r="44.34"/><rect class="cls-6" x="23.77" y="182.8" width="152.46" height="224.03" rx="41.2" ry="41.2" transform="translate(49.71 -12.41) rotate(9.44)"/></g></g></svg>