<svg id="Sheep" xmlns="http://www.w3.org/2000/svg" viewBox="0 0 256 256"><defs><style>.cls-1{fill:none;stroke:#fff;stroke-miterlimit:10;stroke-width:24px;}.cls-2{fill:#fff;}</style></defs><title>Icon</title><polyline class="cls-1" points="182.21 12 244 12 244 244 182.21 244"/><polyline class="cls-1" points="73.79 12 12 12 12 244 73.79 244"/><circle class="cls-2" cx="68.28" cy="73.82" r="9.57"/><circle class="cls-2" cx="55.53" cy="76.48" r="8.85"/><circle class="cls-2" cx="69.51" cy="96.16" r="18.08"/><circle class="cls-2" cx="93.52" cy="123.17" r="32.36"/><circle class="cls-2" cx="121.03" cy="110.53" r="27.28"/><circle class="cls-2" cx="157" cy="106.32" r="28.33"/><circle class="cls-2" cx="180.08" cy="114.25" r="18.33"/><circle class="cls-2" cx="190.99" cy="136.57" r="18.33"/><circle class="cls-2" cx="86.36" cy="139.33" r="23.61"/><circle class="cls-2" cx="63.49" cy="82.5" r="6.03"/><rect class="cls-2" x="76.61" y="151.96" width="18.62" height="37.76" rx="7.52" ry="7.52"/><path class="cls-2" d="M108.75,144h0c-5,.8-8.44,6.1-7.54,11.79l4.27,27c.9,5.69,5.76,9.69,10.81,8.89h0c5-.8,8.44-6.11,7.54-11.79l-4.27-27C118.66,147.19,113.79,143.19,108.75,144Z"/><rect class="cls-2" x="148.21" y="137.3" width="17.61" height="53.17" rx="7.11" ry="7.11" transform="translate(34.21 -26.99) rotate(11.02)"/><rect class="cls-2" x="171.42" y="135.06" width="18.33" height="44.78" rx="7.4" ry="7.4"/><rect class="cls-2" x="68.8" y="77" width="14.71" height="8.34" rx="3.37" ry="3.37" transform="translate(134.18 -13.82) rotate(74.59)"/><path class="cls-2" d="M100.8,147l14.58,10.44s24.37-14.19,41.62,0,2.62-5.48,2.62-5.48,13-5.47,18.57,2.84,5.54-39.08,5.54-39.08L112,119.48Z"/></svg>