<svg xmlns="http://www.w3.org/2000/svg" xmlns:xlink="http://www.w3.org/1999/xlink" viewBox="0 0 256 256"><defs><style>.cls-1,.cls-7{fill:none;}.cls-2{clip-path:url(#clip-path);}.cls-3{fill:#fff;}.cls-4{fill:#a3a3a3;}.cls-5{fill:#b5b5b5;}.cls-6{fill:#e5e5e5;}.cls-7{stroke:#545454;stroke-miterlimit:10;stroke-width:8px;}.cls-8{clip-path:url(#clip-path-2);}</style><clipPath id="clip-path"><rect class="cls-1" x="-278" y="0.25" width="255.75" height="255.75"/></clipPath><clipPath id="clip-path-2"><rect class="cls-1" x="77.09" y="32.33" width="107" height="76.54" transform="translate(12.13 -18.88) rotate(8.67)"/></clipPath></defs><title>Icon</title><g id="Passport"><rect class="cls-4" x="60.34" y="7.06" width="148.51" height="237.33" rx="25.42" ry="25.42" transform="translate(20.49 -18.85) rotate(8.67)"/><rect class="cls-5" x="53.34" y="9.06" width="148.51" height="237.33" rx="25.42" ry="25.42" transform="translate(20.71 -17.77) rotate(8.67)"/><rect class="cls-6" x="47.59" y="9.29" width="148.51" height="237.33" rx="25.42" ry="25.42" transform="translate(20.68 -16.9) rotate(8.67)"/><rect class="cls-7" x="77.09" y="32.33" width="107" height="76.54" transform="translate(12.13 -18.88) rotate(8.67)"/><g class="cls-8"><circle class="cls-7" cx="131.97" cy="61.56" r="10.85"/><rect class="cls-7" x="106.16" y="81.01" width="37.32" height="54.83" rx="12" ry="12" transform="translate(17.77 -17.58) rotate(8.67)"/></g><line class="cls-7" x1="69.14" y1="118.67" x2="161.7" y2="132.78"/><line class="cls-7" x1="67.24" y1="131.11" x2="169.54" y2="146.71"/><line class="cls-7" x1="65.34" y1="143.55" x2="135.88" y2="154.31"/><line class="cls-7" x1="63.45" y1="155.99" x2="84.15" y2="159.15"/><line class="cls-7" x1="53.96" y1="218.19" x2="137.06" y2="230.86"/><line class="cls-7" x1="59.65" y1="180.87" x2="165.44" y2="197"/><line class="cls-7" x1="57.76" y1="193.31" x2="118.55" y2="202.58"/><line class="cls-7" x1="55.86" y1="205.75" x2="148.42" y2="219.87"/></g></svg>