<svg xmlns="http://www.w3.org/2000/svg" xmlns:xlink="http://www.w3.org/1999/xlink" viewBox="0 0 256 256"><defs><style>.cls-1{fill:none;}.cls-2{clip-path:url(#clip-path);}.cls-3{fill:#ff4c30;}.cls-4{fill:#fff;}.cls-5{fill:#a92100;}</style><clipPath id="clip-path"><rect class="cls-1" y="0.25" width="255.75" height="255.75"/></clipPath></defs><title>Icon</title><g id="Pukeko"><g class="cls-2"><path class="cls-3" d="M0,164.74S65.14,34,135.41,41.39s-30,107.71-30,107.71Z"/><path class="cls-4" d="M135.41,41.39S41.67,80.37,88.54,107a96.74,96.74,0,0,1,16.87,42.06l18.71,12.31c-106.68,70.78,60.53,205.17,60.53,205.17,149.77,160,295.43,150.79,295.43,150.79,16.42,14.36,41,69.76,41,69.76,16.41,2-256.46,19.49-256.46,19.49-138.48,44.11-102.58,118-102.58,118,23.59-83.09,90.27-95.4,90.27-95.4-71.81,76.93-24.62,99.5-24.62,99.5,2.05-79,35.91-90.27,35.91-90.27,28.72,26.67-2.06,64.62-2.06,64.62,60.53-14.36,14.37-79,14.37-79,102.58-2.06,269.79-17.44,269.79-17.44,9.23-19.49-26.67-82.07-26.67-82.07,4.1-19.49,21.54-8.21,21.54-8.21,45.13,71.81-15.39,292.36-15.39,292.36-113.87-24.62-106.69,43.09-106.69,43.09,50.27-52.32,92.33-26.67,92.33-26.67l3.08,8.2c-30.78-1-87.2,25.65-79,42.06s39,5.13,26.67,0-4.1-8.2-4.1-8.2,22.56-20.52,68.73-23.86,35.9,19.75,35.9,19.75l-6.16,1v11.28h16.42l6.15-6.15c7.18-20.52,0-30.78,0-30.78-30.77-14.36-33.85-23.59-33.85-23.59,64.63-269.79,19.49-308.77,19.49-308.77V487.62l9.23-6.15c120,13.33,147.72-9.24,147.72-9.24,93.35,27.7,128.23,19.5,128.23,19.5l-18.47-20.52c30.78-41,26.68-89.25,26.68-89.25l12.31-6.15c-9.24-22.57-59.5-20.52-71.81-25.65s-41-42.06-185.68-133.35-378.52-50.27-378.52-50.27c-5.13-40-12.52-131.89-98.48-125.15"/><circle class="cls-5" cx="101.04" cy="86.53" r="11.03"/></g></g></svg>